<svg xmlns="http://www.w3.org/2000/svg" viewBox="0 0 514.17 503.23"><defs><style>.cls-1{fill:#fff;}</style></defs><g id="OBJECTS"><path class="cls-1" d="M447.26,231c0,105-85.13,190.16-190.16,190.16S66.91,336,66.91,231a189.55,189.55,0,0,1,2.65-31.72A190.2,190.2,0,0,0,257.1,357.74c94.23,0,172.44-68.54,187.51-158.47A188.51,188.51,0,0,1,447.26,231Z"/><path class="cls-1" d="M257.1,385.6C158,385.6,76.71,309.88,67.77,213.18c-.55,5.87-.86,11.8-.86,17.81,0,105,85.14,190.16,190.19,190.16S447.26,336,447.26,231c0-6-.3-11.94-.85-17.81C437.46,309.88,356.14,385.6,257.1,385.6Z"/><path class="cls-1" d="M419.25,185.84v51.33a188.22,188.22,0,0,1-58,69.31V185.84Z"/><path class="cls-1" d="M94.92,185.84v51.33a188.22,188.22,0,0,0,58,69.31V185.84Z"/><path class="cls-1" d="M257.09,237.54H170.32v8.26a8.09,8.09,0,0,0,8.09,8.08H335.77a8.08,8.08,0,0,0,8.08-8.08v-8.26Z"/><path class="cls-1" d="M97.05,179h53.79a8.08,8.08,0,0,0,8.08-8.08v-5.1H89v5.1A8.09,8.09,0,0,0,97.05,179Z"/><path class="cls-1" d="M154.39,165.83c5.8-2.9,12.75-15.94,4.35-25.8s-34.8-13.63-34.8-20.88c0,7.25-26.38,11-34.79,20.88s-1.45,22.9,4.35,25.8Z"/><path class="cls-1" d="M131.21,82.09A17.05,17.05,0,0,1,108,105.32a17.06,17.06,0,1,0,23.23-23.23Z"/><path class="cls-1" d="M257.09,237.54H185.77c-13.58-6.79-29.88-37.36-10.19-60.45s81.51-31.92,81.51-48.9c0,17,61.8,25.81,81.5,48.9s3.4,53.66-10.19,60.45Z"/><path class="cls-1" d="M249.82,83.9a17,17,0,0,0,23.23,23.23A17.06,17.06,0,1,1,249.82,83.9Z"/><path class="cls-1" d="M257.1,261.38H176.62v59.7A175.12,175.12,0,0,0,233.19,339V314.9c-4.55-2.28-10-12.52-3.41-20.26s27.31-10.69,27.31-16.38c0,5.69,20.71,8.64,27.31,16.38s1.14,18-3.42,20.26V339a175.1,175.1,0,0,0,56.58-17.89v-59.7Z"/><path class="cls-1" d="M417.13,179H363.34a8.09,8.09,0,0,1-8.09-8.08v-5.1h70v5.1A8.08,8.08,0,0,1,417.13,179Z"/><path class="cls-1" d="M359.79,165.83c-5.8-2.9-12.76-15.94-4.35-25.8s34.79-13.63,34.79-20.88c0,7.25,26.39,11,34.79,20.88s1.45,22.9-4.34,25.8Z"/><path class="cls-1" d="M383,82.09a17.05,17.05,0,0,0,23.23,23.23A17.06,17.06,0,1,1,383,82.09Z"/></g></svg>